<mxfile host="app.diagrams.net" agent="Mozilla/5.0 (Macintosh; Intel Mac OS X 10_15_7) AppleWebKit/605.1.15 (KHTML, like Gecko) Version/17.4.1 Safari/605.1.15" version="24.7.6" pages="2">
  <diagram name="Страница — 1" id="LS_hsxdd65FkhUuADs8E">
    <mxGraphModel dx="2417" dy="2247" grid="1" gridSize="10" guides="1" tooltips="1" connect="1" arrows="1" fold="1" page="1" pageScale="1" pageWidth="827" pageHeight="1169" math="0" shadow="0">
      <root>
        <mxCell id="0" />
        <mxCell id="1" parent="0" />
        <mxCell id="HB2Zi_AlLeRwL962_Kes-37" value="" style="rounded=0;whiteSpace=wrap;html=1;" vertex="1" parent="1">
          <mxGeometry x="-499.5" y="-99" width="702" height="433" as="geometry" />
        </mxCell>
        <mxCell id="HhmzMrbmqhr_2IEOml7r-1" value="Films" style="rounded=0;whiteSpace=wrap;html=1;" vertex="1" parent="1">
          <mxGeometry x="752" y="-184" width="120" height="60" as="geometry" />
        </mxCell>
        <mxCell id="HhmzMrbmqhr_2IEOml7r-2" value="Authorized Users" style="rounded=0;whiteSpace=wrap;html=1;" vertex="1" parent="1">
          <mxGeometry x="542" y="-514" width="120" height="60" as="geometry" />
        </mxCell>
        <mxCell id="HhmzMrbmqhr_2IEOml7r-3" value="Rating" style="rounded=0;whiteSpace=wrap;html=1;" vertex="1" parent="1">
          <mxGeometry x="552" y="-184" width="120" height="60" as="geometry" />
        </mxCell>
        <mxCell id="HhmzMrbmqhr_2IEOml7r-4" value="Survey" style="rounded=0;whiteSpace=wrap;html=1;" vertex="1" parent="1">
          <mxGeometry x="752" y="-404" width="120" height="60" as="geometry" />
        </mxCell>
        <mxCell id="HhmzMrbmqhr_2IEOml7r-5" value="Not authorized Users" style="rounded=0;whiteSpace=wrap;html=1;" vertex="1" parent="1">
          <mxGeometry x="752" y="-514" width="120" height="60" as="geometry" />
        </mxCell>
        <mxCell id="HhmzMrbmqhr_2IEOml7r-7" value="" style="endArrow=classic;html=1;rounded=0;exitX=0.5;exitY=1;exitDx=0;exitDy=0;entryX=0.5;entryY=0;entryDx=0;entryDy=0;" edge="1" parent="1" source="HhmzMrbmqhr_2IEOml7r-5" target="HhmzMrbmqhr_2IEOml7r-4">
          <mxGeometry width="50" height="50" relative="1" as="geometry">
            <mxPoint x="812" y="-204" as="sourcePoint" />
            <mxPoint x="862" y="-254" as="targetPoint" />
          </mxGeometry>
        </mxCell>
        <mxCell id="HhmzMrbmqhr_2IEOml7r-8" value="" style="endArrow=classic;html=1;rounded=0;exitX=0.5;exitY=1;exitDx=0;exitDy=0;entryX=0.5;entryY=0;entryDx=0;entryDy=0;" edge="1" parent="1" source="HhmzMrbmqhr_2IEOml7r-2" target="HhmzMrbmqhr_2IEOml7r-4">
          <mxGeometry width="50" height="50" relative="1" as="geometry">
            <mxPoint x="812" y="-204" as="sourcePoint" />
            <mxPoint x="862" y="-254" as="targetPoint" />
          </mxGeometry>
        </mxCell>
        <mxCell id="HhmzMrbmqhr_2IEOml7r-10" value="" style="endArrow=classic;html=1;rounded=0;exitX=0.5;exitY=0;exitDx=0;exitDy=0;entryX=0.5;entryY=1;entryDx=0;entryDy=0;" edge="1" parent="1" source="HhmzMrbmqhr_2IEOml7r-1" target="HhmzMrbmqhr_2IEOml7r-11">
          <mxGeometry width="50" height="50" relative="1" as="geometry">
            <mxPoint x="782" y="-194" as="sourcePoint" />
            <mxPoint x="832" y="-244" as="targetPoint" />
          </mxGeometry>
        </mxCell>
        <mxCell id="HhmzMrbmqhr_2IEOml7r-11" value="Recommendations" style="rounded=0;whiteSpace=wrap;html=1;" vertex="1" parent="1">
          <mxGeometry x="752" y="-314" width="120" height="60" as="geometry" />
        </mxCell>
        <mxCell id="HhmzMrbmqhr_2IEOml7r-13" value="Watching list&amp;nbsp;&lt;div&gt;(should to watch)&lt;/div&gt;" style="rounded=0;whiteSpace=wrap;html=1;" vertex="1" parent="1">
          <mxGeometry x="372" y="-384" width="120" height="60" as="geometry" />
        </mxCell>
        <mxCell id="HhmzMrbmqhr_2IEOml7r-15" value="Rating history" style="rounded=0;whiteSpace=wrap;html=1;" vertex="1" parent="1">
          <mxGeometry x="372" y="-324" width="120" height="60" as="geometry" />
        </mxCell>
        <mxCell id="HhmzMrbmqhr_2IEOml7r-16" value="" style="endArrow=classic;html=1;rounded=0;exitX=0.5;exitY=1;exitDx=0;exitDy=0;entryX=0.5;entryY=0;entryDx=0;entryDy=0;" edge="1" parent="1" source="HhmzMrbmqhr_2IEOml7r-4" target="HhmzMrbmqhr_2IEOml7r-11">
          <mxGeometry width="50" height="50" relative="1" as="geometry">
            <mxPoint x="692" y="-304" as="sourcePoint" />
            <mxPoint x="742" y="-354" as="targetPoint" />
          </mxGeometry>
        </mxCell>
        <mxCell id="HhmzMrbmqhr_2IEOml7r-19" value="" style="endArrow=classic;html=1;rounded=0;exitX=0.5;exitY=1;exitDx=0;exitDy=0;entryX=1;entryY=0.5;entryDx=0;entryDy=0;" edge="1" parent="1" source="HhmzMrbmqhr_2IEOml7r-2" target="HhmzMrbmqhr_2IEOml7r-13">
          <mxGeometry width="50" height="50" relative="1" as="geometry">
            <mxPoint x="692" y="-304" as="sourcePoint" />
            <mxPoint x="742" y="-354" as="targetPoint" />
          </mxGeometry>
        </mxCell>
        <mxCell id="HhmzMrbmqhr_2IEOml7r-20" value="" style="endArrow=classic;startArrow=classic;html=1;rounded=0;exitX=1;exitY=0.5;exitDx=0;exitDy=0;" edge="1" parent="1" source="HhmzMrbmqhr_2IEOml7r-15">
          <mxGeometry width="50" height="50" relative="1" as="geometry">
            <mxPoint x="692" y="-304" as="sourcePoint" />
            <mxPoint x="602" y="-454" as="targetPoint" />
          </mxGeometry>
        </mxCell>
        <mxCell id="HhmzMrbmqhr_2IEOml7r-22" value="Reviews" style="rounded=0;whiteSpace=wrap;html=1;" vertex="1" parent="1">
          <mxGeometry x="552" y="-264" width="120" height="60" as="geometry" />
        </mxCell>
        <mxCell id="HhmzMrbmqhr_2IEOml7r-23" value="Capcha" style="rounded=0;whiteSpace=wrap;html=1;" vertex="1" parent="1">
          <mxGeometry x="542" y="-604" width="120" height="60" as="geometry" />
        </mxCell>
        <mxCell id="HhmzMrbmqhr_2IEOml7r-24" value="" style="endArrow=classic;html=1;rounded=0;exitX=0.5;exitY=1;exitDx=0;exitDy=0;entryX=0.5;entryY=0;entryDx=0;entryDy=0;" edge="1" parent="1" source="HhmzMrbmqhr_2IEOml7r-23" target="HhmzMrbmqhr_2IEOml7r-2">
          <mxGeometry width="50" height="50" relative="1" as="geometry">
            <mxPoint x="692" y="-304" as="sourcePoint" />
            <mxPoint x="742" y="-354" as="targetPoint" />
          </mxGeometry>
        </mxCell>
        <mxCell id="HhmzMrbmqhr_2IEOml7r-25" value="" style="endArrow=classic;html=1;rounded=0;exitX=0.5;exitY=1;exitDx=0;exitDy=0;entryX=0.5;entryY=0;entryDx=0;entryDy=0;" edge="1" parent="1" source="HhmzMrbmqhr_2IEOml7r-2" target="HhmzMrbmqhr_2IEOml7r-22">
          <mxGeometry width="50" height="50" relative="1" as="geometry">
            <mxPoint x="692" y="-304" as="sourcePoint" />
            <mxPoint x="742" y="-354" as="targetPoint" />
          </mxGeometry>
        </mxCell>
        <mxCell id="HhmzMrbmqhr_2IEOml7r-27" value="" style="endArrow=classic;html=1;rounded=0;exitX=1;exitY=0.5;exitDx=0;exitDy=0;entryX=0;entryY=0.5;entryDx=0;entryDy=0;" edge="1" parent="1" source="HhmzMrbmqhr_2IEOml7r-15" target="HhmzMrbmqhr_2IEOml7r-11">
          <mxGeometry width="50" height="50" relative="1" as="geometry">
            <mxPoint x="632" y="-264" as="sourcePoint" />
            <mxPoint x="682" y="-314" as="targetPoint" />
          </mxGeometry>
        </mxCell>
        <mxCell id="HhmzMrbmqhr_2IEOml7r-28" value="" style="endArrow=classic;html=1;rounded=0;exitX=1;exitY=0.5;exitDx=0;exitDy=0;" edge="1" parent="1" source="HhmzMrbmqhr_2IEOml7r-3">
          <mxGeometry width="50" height="50" relative="1" as="geometry">
            <mxPoint x="692" y="-304" as="sourcePoint" />
            <mxPoint x="752" y="-154" as="targetPoint" />
          </mxGeometry>
        </mxCell>
        <mxCell id="HhmzMrbmqhr_2IEOml7r-29" value="" style="endArrow=classic;html=1;rounded=0;exitX=1;exitY=0.5;exitDx=0;exitDy=0;entryX=0;entryY=0.5;entryDx=0;entryDy=0;" edge="1" parent="1" source="HhmzMrbmqhr_2IEOml7r-22" target="HhmzMrbmqhr_2IEOml7r-1">
          <mxGeometry width="50" height="50" relative="1" as="geometry">
            <mxPoint x="692" y="-304" as="sourcePoint" />
            <mxPoint x="742" y="-354" as="targetPoint" />
          </mxGeometry>
        </mxCell>
        <mxCell id="HhmzMrbmqhr_2IEOml7r-30" value="" style="endArrow=classic;html=1;rounded=0;exitX=0.5;exitY=1;exitDx=0;exitDy=0;entryX=0;entryY=0.5;entryDx=0;entryDy=0;" edge="1" parent="1" source="HhmzMrbmqhr_2IEOml7r-15" target="HhmzMrbmqhr_2IEOml7r-3">
          <mxGeometry width="50" height="50" relative="1" as="geometry">
            <mxPoint x="692" y="-304" as="sourcePoint" />
            <mxPoint x="742" y="-354" as="targetPoint" />
          </mxGeometry>
        </mxCell>
        <mxCell id="l4dksT7qZbz_hdmSisIs-1" value="" style="rounded=0;whiteSpace=wrap;html=1;" vertex="1" parent="1">
          <mxGeometry x="-498" y="-559" width="702" height="433" as="geometry" />
        </mxCell>
        <mxCell id="l4dksT7qZbz_hdmSisIs-2" value="FilmSpot" style="rounded=0;whiteSpace=wrap;html=1;" vertex="1" parent="1">
          <mxGeometry x="-225" y="-546" width="167" height="46" as="geometry" />
        </mxCell>
        <mxCell id="l4dksT7qZbz_hdmSisIs-3" value="Login / Register" style="rounded=0;whiteSpace=wrap;html=1;" vertex="1" parent="1">
          <mxGeometry x="56" y="-548" width="126" height="29" as="geometry" />
        </mxCell>
        <mxCell id="l4dksT7qZbz_hdmSisIs-4" value="Todays trending Movie Titles names and reviews" style="rounded=0;whiteSpace=wrap;html=1;" vertex="1" parent="1">
          <mxGeometry x="-491" y="-537" width="120" height="356" as="geometry" />
        </mxCell>
        <mxCell id="l4dksT7qZbz_hdmSisIs-5" value="questions" style="rounded=0;whiteSpace=wrap;html=1;" vertex="1" parent="1">
          <mxGeometry x="-340" y="-468" width="383" height="235" as="geometry" />
        </mxCell>
        <mxCell id="l4dksT7qZbz_hdmSisIs-6" value="Ads" style="rounded=0;whiteSpace=wrap;html=1;" vertex="1" parent="1">
          <mxGeometry x="78" y="-488" width="109" height="349" as="geometry" />
        </mxCell>
        <mxCell id="l4dksT7qZbz_hdmSisIs-7" value="Ads" style="rounded=0;whiteSpace=wrap;html=1;" vertex="1" parent="1">
          <mxGeometry x="-352" y="-193" width="400" height="60" as="geometry" />
        </mxCell>
        <mxCell id="l4dksT7qZbz_hdmSisIs-8" value="Question" style="rounded=0;whiteSpace=wrap;html=1;" vertex="1" parent="1">
          <mxGeometry x="-316" y="-454" width="341" height="33" as="geometry" />
        </mxCell>
        <mxCell id="l4dksT7qZbz_hdmSisIs-9" value="Answer1" style="rounded=0;whiteSpace=wrap;html=1;" vertex="1" parent="1">
          <mxGeometry x="-316" y="-409" width="342" height="30" as="geometry" />
        </mxCell>
        <mxCell id="l4dksT7qZbz_hdmSisIs-10" value="Answer2" style="rounded=0;whiteSpace=wrap;html=1;" vertex="1" parent="1">
          <mxGeometry x="-316" y="-365.5" width="342" height="30" as="geometry" />
        </mxCell>
        <mxCell id="l4dksT7qZbz_hdmSisIs-11" value="Answer4" style="rounded=0;whiteSpace=wrap;html=1;" vertex="1" parent="1">
          <mxGeometry x="-316" y="-274" width="342" height="30" as="geometry" />
        </mxCell>
        <mxCell id="l4dksT7qZbz_hdmSisIs-12" value="Answer3" style="rounded=0;whiteSpace=wrap;html=1;" vertex="1" parent="1">
          <mxGeometry x="-316" y="-317" width="342" height="30" as="geometry" />
        </mxCell>
        <mxCell id="l4dksT7qZbz_hdmSisIs-13" value="5-6 questions" style="text;html=1;align=center;verticalAlign=middle;resizable=0;points=[];autosize=1;strokeColor=none;fillColor=none;fontSize=16;" vertex="1" parent="1">
          <mxGeometry x="-653" y="-559" width="114" height="31" as="geometry" />
        </mxCell>
        <mxCell id="l4dksT7qZbz_hdmSisIs-14" value="Result" style="text;html=1;align=center;verticalAlign=middle;resizable=0;points=[];autosize=1;strokeColor=none;fillColor=none;fontSize=16;" vertex="1" parent="1">
          <mxGeometry x="-627" y="-104" width="63" height="31" as="geometry" />
        </mxCell>
        <mxCell id="l4dksT7qZbz_hdmSisIs-15" value="Links" style="rounded=0;whiteSpace=wrap;html=1;" vertex="1" parent="1">
          <mxGeometry x="-243" y="231" width="178" height="30" as="geometry" />
        </mxCell>
        <mxCell id="l4dksT7qZbz_hdmSisIs-17" value="Account page" style="text;html=1;align=center;verticalAlign=middle;resizable=0;points=[];autosize=1;strokeColor=none;fillColor=none;fontSize=16;" vertex="1" parent="1">
          <mxGeometry x="-654" y="348" width="116" height="31" as="geometry" />
        </mxCell>
        <mxCell id="l4dksT7qZbz_hdmSisIs-18" value="&lt;ol&gt;&lt;li&gt;&lt;span style=&quot;background-color: rgb(248, 248, 248); color: rgb(29, 28, 29); font-family: Slack-Lato, Slack-Fractions, appleLogo, sans-serif; font-size: 15px; font-variant-ligatures: common-ligatures;&quot;&gt;Recommendation engine: develop an algorithm for film recommendation for authorized and non-authorized users.&lt;/span&gt;&lt;/li&gt;&lt;li&gt;&lt;span style=&quot;background-color: rgb(248, 248, 248); color: rgb(29, 28, 29); font-family: Slack-Lato, Slack-Fractions, appleLogo, sans-serif; font-size: 15px; font-variant-ligatures: common-ligatures;&quot;&gt;Movie Database Integration (TMDb, IMDb or different)&lt;/span&gt;&lt;/li&gt;&lt;li&gt;&lt;span style=&quot;background-color: rgb(248, 248, 248); color: rgb(29, 28, 29); font-family: Slack-Lato, Slack-Fractions, appleLogo, sans-serif; font-size: 15px; font-variant-ligatures: common-ligatures;&quot;&gt;User experience: design an intuitive and responsive user interface, ensure smooth navigation and visually appealing layouts.&lt;/span&gt;&lt;/li&gt;&lt;li&gt;&lt;span style=&quot;background-color: rgb(248, 248, 248); color: rgb(29, 28, 29); font-family: Slack-Lato, Slack-Fractions, appleLogo, sans-serif; font-size: 15px; font-variant-ligatures: common-ligatures;&quot;&gt;User registration: captcha, users can create and delete accounts, log in and watch history and ratings.&lt;/span&gt;&lt;/li&gt;&lt;li&gt;&lt;span style=&quot;background-color: rgb(248, 248, 248); color: rgb(29, 28, 29); font-family: Slack-Lato, Slack-Fractions, appleLogo, sans-serif; font-size: 15px; font-variant-ligatures: common-ligatures;&quot;&gt;Rating system: allow users to rate movies and access to make reviews.&lt;/span&gt;&lt;/li&gt;&lt;li&gt;&lt;span style=&quot;background-color: rgb(248, 248, 248); color: rgb(29, 28, 29); font-family: Slack-Lato, Slack-Fractions, appleLogo, sans-serif; font-size: 15px; font-variant-ligatures: common-ligatures;&quot;&gt;Reviews: section after recommended film.&lt;/span&gt;&lt;/li&gt;&lt;li&gt;&lt;span style=&quot;background-color: rgb(248, 248, 248); color: rgb(29, 28, 29); font-family: Slack-Lato, Slack-Fractions, appleLogo, sans-serif; font-size: 15px; font-variant-ligatures: common-ligatures;&quot;&gt;Scalability and Performance: design the system to handle a growing user base, optimize performance for quick response times.&lt;/span&gt;&lt;/li&gt;&lt;/ol&gt;" style="text;whiteSpace=wrap;html=1;spacing=3;" vertex="1" parent="1">
          <mxGeometry x="-498" y="-874" width="701" height="220" as="geometry" />
        </mxCell>
        <mxCell id="l4dksT7qZbz_hdmSisIs-19" value="&lt;b data-stringify-type=&quot;bold&quot; style=&quot;box-sizing: inherit; color: rgb(29, 28, 29); font-family: Slack-Lato, Slack-Fractions, appleLogo, sans-serif; font-size: 15px; font-style: normal; font-variant-ligatures: common-ligatures; font-variant-caps: normal; letter-spacing: normal; orphans: 2; text-align: left; text-indent: 0px; text-transform: none; widows: 2; word-spacing: 0px; -webkit-text-stroke-width: 0px; white-space: normal; background-color: rgb(248, 248, 248); text-decoration-thickness: initial; text-decoration-style: initial; text-decoration-color: initial;&quot;&gt;Movie recommendation system:&lt;/b&gt;&lt;span style=&quot;color: rgb(29, 28, 29); font-family: Slack-Lato, Slack-Fractions, appleLogo, sans-serif; font-size: 15px; font-style: normal; font-variant-ligatures: common-ligatures; font-variant-caps: normal; font-weight: 400; letter-spacing: normal; orphans: 2; text-align: left; text-indent: 0px; text-transform: none; widows: 2; word-spacing: 0px; -webkit-text-stroke-width: 0px; white-space: normal; background-color: rgb(248, 248, 248); text-decoration-thickness: initial; text-decoration-style: initial; text-decoration-color: initial; display: inline !important; float: none;&quot;&gt;&lt;span&gt;&amp;nbsp;&lt;/span&gt;Creating a movie recommendation system that suggests movies based on user preferences and ratings.&amp;nbsp;&lt;/span&gt;" style="text;whiteSpace=wrap;html=1;" vertex="1" parent="1">
          <mxGeometry x="-498" y="-976" width="711" height="76" as="geometry" />
        </mxCell>
        <mxCell id="r-4gwITru2xlTATCTxKp-1" value="" style="rounded=0;whiteSpace=wrap;html=1;" vertex="1" parent="1">
          <mxGeometry x="-499" y="349.5" width="702" height="433" as="geometry" />
        </mxCell>
        <mxCell id="r-4gwITru2xlTATCTxKp-2" value="FilmSpot" style="rounded=0;whiteSpace=wrap;html=1;" vertex="1" parent="1">
          <mxGeometry x="-225" y="-88" width="167" height="46" as="geometry" />
        </mxCell>
        <mxCell id="r-4gwITru2xlTATCTxKp-3" value="Login / Register" style="rounded=0;whiteSpace=wrap;html=1;" vertex="1" parent="1">
          <mxGeometry x="56" y="-90" width="126" height="29" as="geometry" />
        </mxCell>
        <mxCell id="r-4gwITru2xlTATCTxKp-4" value="Todays trending Movie Titles names and reviews" style="rounded=0;whiteSpace=wrap;html=1;" vertex="1" parent="1">
          <mxGeometry x="-491" y="-79" width="120" height="356" as="geometry" />
        </mxCell>
        <mxCell id="r-4gwITru2xlTATCTxKp-5" value="questions" style="rounded=0;whiteSpace=wrap;html=1;" vertex="1" parent="1">
          <mxGeometry x="-340" y="-10" width="383" height="235" as="geometry" />
        </mxCell>
        <mxCell id="r-4gwITru2xlTATCTxKp-6" value="Ads" style="rounded=0;whiteSpace=wrap;html=1;" vertex="1" parent="1">
          <mxGeometry x="78" y="-30" width="109" height="349" as="geometry" />
        </mxCell>
        <mxCell id="r-4gwITru2xlTATCTxKp-7" value="Ads" style="rounded=0;whiteSpace=wrap;html=1;" vertex="1" parent="1">
          <mxGeometry x="-352" y="265" width="400" height="60" as="geometry" />
        </mxCell>
        <mxCell id="r-4gwITru2xlTATCTxKp-8" value="Film image" style="rounded=0;whiteSpace=wrap;html=1;" vertex="1" parent="1">
          <mxGeometry x="-316" y="4" width="105" height="75" as="geometry" />
        </mxCell>
        <mxCell id="r-4gwITru2xlTATCTxKp-9" value="Recommendation:&amp;nbsp;&lt;div&gt;Film details, description&lt;/div&gt;" style="rounded=0;whiteSpace=wrap;html=1;" vertex="1" parent="1">
          <mxGeometry x="-199" y="4" width="225" height="75" as="geometry" />
        </mxCell>
        <mxCell id="r-4gwITru2xlTATCTxKp-10" value="Review1" style="rounded=0;whiteSpace=wrap;html=1;" vertex="1" parent="1">
          <mxGeometry x="-316" y="92.5" width="342" height="30" as="geometry" />
        </mxCell>
        <mxCell id="r-4gwITru2xlTATCTxKp-11" value="ReviewN" style="rounded=0;whiteSpace=wrap;html=1;" vertex="1" parent="1">
          <mxGeometry x="-316" y="184" width="342" height="30" as="geometry" />
        </mxCell>
        <mxCell id="r-4gwITru2xlTATCTxKp-12" value="Review2" style="rounded=0;whiteSpace=wrap;html=1;" vertex="1" parent="1">
          <mxGeometry x="-316" y="141" width="342" height="30" as="geometry" />
        </mxCell>
        <mxCell id="3AMT3zw46Zd8kkKR2NrO-1" style="edgeStyle=none;curved=1;rounded=0;orthogonalLoop=1;jettySize=auto;html=1;exitX=1;exitY=0.5;exitDx=0;exitDy=0;fontSize=12;startSize=8;endSize=8;" edge="1" parent="1" source="r-4gwITru2xlTATCTxKp-8" target="r-4gwITru2xlTATCTxKp-8">
          <mxGeometry relative="1" as="geometry" />
        </mxCell>
        <mxCell id="3AMT3zw46Zd8kkKR2NrO-4" style="edgeStyle=none;curved=1;rounded=0;orthogonalLoop=1;jettySize=auto;html=1;exitX=0;exitY=0.5;exitDx=0;exitDy=0;fontSize=12;startSize=8;endSize=8;" edge="1" parent="1" source="r-4gwITru2xlTATCTxKp-9" target="r-4gwITru2xlTATCTxKp-9">
          <mxGeometry relative="1" as="geometry" />
        </mxCell>
        <mxCell id="HB2Zi_AlLeRwL962_Kes-1" value="FilmSpot" style="rounded=0;whiteSpace=wrap;html=1;" vertex="1" parent="1">
          <mxGeometry x="-225" y="361" width="167" height="46" as="geometry" />
        </mxCell>
        <mxCell id="HB2Zi_AlLeRwL962_Kes-2" value="Login / Register" style="rounded=0;whiteSpace=wrap;html=1;" vertex="1" parent="1">
          <mxGeometry x="56" y="359" width="126" height="29" as="geometry" />
        </mxCell>
        <mxCell id="HB2Zi_AlLeRwL962_Kes-3" value="Todays trending Movie Titles names and reviews" style="rounded=0;whiteSpace=wrap;html=1;" vertex="1" parent="1">
          <mxGeometry x="-491" y="370" width="120" height="356" as="geometry" />
        </mxCell>
        <mxCell id="HB2Zi_AlLeRwL962_Kes-4" value="Ads" style="rounded=0;whiteSpace=wrap;html=1;" vertex="1" parent="1">
          <mxGeometry x="59" y="428" width="120" height="282" as="geometry" />
        </mxCell>
        <mxCell id="HB2Zi_AlLeRwL962_Kes-5" value="Ads" style="rounded=0;whiteSpace=wrap;html=1;" vertex="1" parent="1">
          <mxGeometry x="-352" y="737" width="400" height="37" as="geometry" />
        </mxCell>
        <mxCell id="HB2Zi_AlLeRwL962_Kes-6" value="Your&amp;nbsp;recommended film to watch" style="rounded=1;whiteSpace=wrap;html=1;" vertex="1" parent="1">
          <mxGeometry x="-352" y="426" width="120" height="122" as="geometry" />
        </mxCell>
        <mxCell id="HB2Zi_AlLeRwL962_Kes-7" value="Your&amp;nbsp;recommended film to watch" style="rounded=1;whiteSpace=wrap;html=1;" vertex="1" parent="1">
          <mxGeometry x="-219" y="426" width="120" height="122" as="geometry" />
        </mxCell>
        <mxCell id="HB2Zi_AlLeRwL962_Kes-8" value="Your&amp;nbsp;recommended film to watch" style="rounded=1;whiteSpace=wrap;html=1;" vertex="1" parent="1">
          <mxGeometry x="-86" y="426" width="120" height="122" as="geometry" />
        </mxCell>
        <mxCell id="HB2Zi_AlLeRwL962_Kes-9" value="Your&amp;nbsp;recommended film to watch" style="rounded=1;whiteSpace=wrap;html=1;" vertex="1" parent="1">
          <mxGeometry x="-352" y="562" width="120" height="122" as="geometry" />
        </mxCell>
        <mxCell id="HB2Zi_AlLeRwL962_Kes-10" value="Your&amp;nbsp;recommended film to watch" style="rounded=1;whiteSpace=wrap;html=1;" vertex="1" parent="1">
          <mxGeometry x="-219" y="562" width="120" height="122" as="geometry" />
        </mxCell>
        <mxCell id="HB2Zi_AlLeRwL962_Kes-11" value="Your&amp;nbsp;recommended film to watch" style="rounded=1;whiteSpace=wrap;html=1;" vertex="1" parent="1">
          <mxGeometry x="-86" y="562" width="120" height="122" as="geometry" />
        </mxCell>
        <mxCell id="HB2Zi_AlLeRwL962_Kes-12" style="edgeStyle=none;curved=1;rounded=0;orthogonalLoop=1;jettySize=auto;html=1;exitX=0.5;exitY=0;exitDx=0;exitDy=0;fontSize=12;startSize=8;endSize=8;" edge="1" parent="1" source="HB2Zi_AlLeRwL962_Kes-5" target="HB2Zi_AlLeRwL962_Kes-5">
          <mxGeometry relative="1" as="geometry" />
        </mxCell>
        <mxCell id="HB2Zi_AlLeRwL962_Kes-13" style="edgeStyle=none;curved=1;rounded=0;orthogonalLoop=1;jettySize=auto;html=1;exitX=0;exitY=0.5;exitDx=0;exitDy=0;fontSize=12;startSize=8;endSize=8;" edge="1" parent="1" source="HB2Zi_AlLeRwL962_Kes-4" target="HB2Zi_AlLeRwL962_Kes-4">
          <mxGeometry relative="1" as="geometry" />
        </mxCell>
        <mxCell id="HB2Zi_AlLeRwL962_Kes-14" style="edgeStyle=none;curved=1;rounded=0;orthogonalLoop=1;jettySize=auto;html=1;exitX=0;exitY=1;exitDx=0;exitDy=0;fontSize=12;startSize=8;endSize=8;" edge="1" parent="1" source="HB2Zi_AlLeRwL962_Kes-4" target="HB2Zi_AlLeRwL962_Kes-4">
          <mxGeometry relative="1" as="geometry" />
        </mxCell>
        <mxCell id="HB2Zi_AlLeRwL962_Kes-15" style="edgeStyle=none;curved=1;rounded=0;orthogonalLoop=1;jettySize=auto;html=1;exitX=0;exitY=0.5;exitDx=0;exitDy=0;fontSize=12;startSize=8;endSize=8;" edge="1" parent="1" source="HB2Zi_AlLeRwL962_Kes-4" target="HB2Zi_AlLeRwL962_Kes-4">
          <mxGeometry relative="1" as="geometry" />
        </mxCell>
        <mxCell id="HB2Zi_AlLeRwL962_Kes-16" value="" style="rounded=0;whiteSpace=wrap;html=1;" vertex="1" parent="1">
          <mxGeometry x="-499.5" y="800" width="702" height="433" as="geometry" />
        </mxCell>
        <mxCell id="HB2Zi_AlLeRwL962_Kes-17" value="FilmSpot" style="rounded=0;whiteSpace=wrap;html=1;" vertex="1" parent="1">
          <mxGeometry x="-226.5" y="813" width="167" height="46" as="geometry" />
        </mxCell>
        <mxCell id="HB2Zi_AlLeRwL962_Kes-18" value="Logout" style="rounded=0;whiteSpace=wrap;html=1;" vertex="1" parent="1">
          <mxGeometry x="54.5" y="811" width="126" height="29" as="geometry" />
        </mxCell>
        <mxCell id="HB2Zi_AlLeRwL962_Kes-19" value="Watched movie history" style="rounded=0;whiteSpace=wrap;html=1;" vertex="1" parent="1">
          <mxGeometry x="-492.5" y="822" width="120" height="356" as="geometry" />
        </mxCell>
        <mxCell id="HB2Zi_AlLeRwL962_Kes-20" value="Movies you should watch next" style="rounded=0;whiteSpace=wrap;html=1;" vertex="1" parent="1">
          <mxGeometry x="57.5" y="880" width="120" height="282" as="geometry" />
        </mxCell>
        <mxCell id="HB2Zi_AlLeRwL962_Kes-21" value="Ads" style="rounded=0;whiteSpace=wrap;html=1;" vertex="1" parent="1">
          <mxGeometry x="-353.5" y="1189" width="400" height="37" as="geometry" />
        </mxCell>
        <mxCell id="HB2Zi_AlLeRwL962_Kes-22" value="Film you watched write review and rate" style="rounded=1;whiteSpace=wrap;html=1;" vertex="1" parent="1">
          <mxGeometry x="-353.5" y="878" width="120" height="122" as="geometry" />
        </mxCell>
        <mxCell id="HB2Zi_AlLeRwL962_Kes-23" value="Film you watched write review and rate" style="rounded=1;whiteSpace=wrap;html=1;" vertex="1" parent="1">
          <mxGeometry x="-220.5" y="878" width="120" height="122" as="geometry" />
        </mxCell>
        <mxCell id="HB2Zi_AlLeRwL962_Kes-24" value="Film you watched write review and rate" style="rounded=1;whiteSpace=wrap;html=1;" vertex="1" parent="1">
          <mxGeometry x="-87.5" y="878" width="120" height="122" as="geometry" />
        </mxCell>
        <mxCell id="HB2Zi_AlLeRwL962_Kes-25" value="Film you watched write review and rate" style="rounded=1;whiteSpace=wrap;html=1;" vertex="1" parent="1">
          <mxGeometry x="-353.5" y="1014" width="120" height="122" as="geometry" />
        </mxCell>
        <mxCell id="HB2Zi_AlLeRwL962_Kes-26" value="Film you watched write review and rate" style="rounded=1;whiteSpace=wrap;html=1;" vertex="1" parent="1">
          <mxGeometry x="-220.5" y="1014" width="120" height="122" as="geometry" />
        </mxCell>
        <mxCell id="HB2Zi_AlLeRwL962_Kes-27" value="Film you watched write review and rate" style="rounded=1;whiteSpace=wrap;html=1;" vertex="1" parent="1">
          <mxGeometry x="-87.5" y="1014" width="120" height="122" as="geometry" />
        </mxCell>
        <mxCell id="HB2Zi_AlLeRwL962_Kes-28" style="edgeStyle=none;curved=1;rounded=0;orthogonalLoop=1;jettySize=auto;html=1;exitX=0.5;exitY=0;exitDx=0;exitDy=0;fontSize=12;startSize=8;endSize=8;" edge="1" parent="1" source="HB2Zi_AlLeRwL962_Kes-21" target="HB2Zi_AlLeRwL962_Kes-21">
          <mxGeometry relative="1" as="geometry" />
        </mxCell>
        <mxCell id="HB2Zi_AlLeRwL962_Kes-29" style="edgeStyle=none;curved=1;rounded=0;orthogonalLoop=1;jettySize=auto;html=1;exitX=0;exitY=0.5;exitDx=0;exitDy=0;fontSize=12;startSize=8;endSize=8;" edge="1" parent="1" source="HB2Zi_AlLeRwL962_Kes-20" target="HB2Zi_AlLeRwL962_Kes-20">
          <mxGeometry relative="1" as="geometry" />
        </mxCell>
        <mxCell id="HB2Zi_AlLeRwL962_Kes-30" style="edgeStyle=none;curved=1;rounded=0;orthogonalLoop=1;jettySize=auto;html=1;exitX=0;exitY=1;exitDx=0;exitDy=0;fontSize=12;startSize=8;endSize=8;" edge="1" parent="1" source="HB2Zi_AlLeRwL962_Kes-20" target="HB2Zi_AlLeRwL962_Kes-20">
          <mxGeometry relative="1" as="geometry" />
        </mxCell>
        <mxCell id="HB2Zi_AlLeRwL962_Kes-31" style="edgeStyle=none;curved=1;rounded=0;orthogonalLoop=1;jettySize=auto;html=1;exitX=0;exitY=0.5;exitDx=0;exitDy=0;fontSize=12;startSize=8;endSize=8;" edge="1" parent="1" source="HB2Zi_AlLeRwL962_Kes-20" target="HB2Zi_AlLeRwL962_Kes-20">
          <mxGeometry relative="1" as="geometry" />
        </mxCell>
        <mxCell id="HB2Zi_AlLeRwL962_Kes-32" style="edgeStyle=none;curved=1;rounded=0;orthogonalLoop=1;jettySize=auto;html=1;exitX=0.5;exitY=0;exitDx=0;exitDy=0;fontSize=12;startSize=8;endSize=8;" edge="1" parent="1" source="HB2Zi_AlLeRwL962_Kes-21" target="HB2Zi_AlLeRwL962_Kes-21">
          <mxGeometry relative="1" as="geometry">
            <Array as="points">
              <mxPoint x="-153" y="1185" />
            </Array>
          </mxGeometry>
        </mxCell>
        <mxCell id="HB2Zi_AlLeRwL962_Kes-33" value="Page selector 1 - infinte" style="rounded=0;whiteSpace=wrap;html=1;" vertex="1" parent="1">
          <mxGeometry x="-257" y="1152" width="203" height="29" as="geometry" />
        </mxCell>
        <mxCell id="HB2Zi_AlLeRwL962_Kes-34" style="edgeStyle=none;curved=1;rounded=0;orthogonalLoop=1;jettySize=auto;html=1;exitX=0.5;exitY=0;exitDx=0;exitDy=0;fontSize=12;startSize=8;endSize=8;" edge="1" parent="1" source="HB2Zi_AlLeRwL962_Kes-5" target="HB2Zi_AlLeRwL962_Kes-5">
          <mxGeometry relative="1" as="geometry" />
        </mxCell>
        <mxCell id="HB2Zi_AlLeRwL962_Kes-35" value="Page number" style="rounded=0;whiteSpace=wrap;html=1;" vertex="1" parent="1">
          <mxGeometry x="-213" y="697" width="105.5" height="27" as="geometry" />
        </mxCell>
        <mxCell id="HhmzMrbmqhr_2IEOml7r-41" value="" style="rounded=0;whiteSpace=wrap;html=1;" vertex="1" parent="1">
          <mxGeometry x="400" y="349.5" width="702" height="433" as="geometry" />
        </mxCell>
        <mxCell id="HhmzMrbmqhr_2IEOml7r-43" value="FilmSpot" style="rounded=0;whiteSpace=wrap;html=1;" vertex="1" parent="1">
          <mxGeometry x="674.5" y="360.5" width="167" height="46" as="geometry" />
        </mxCell>
        <mxCell id="HhmzMrbmqhr_2IEOml7r-44" value="Login / Register" style="rounded=0;whiteSpace=wrap;html=1;" vertex="1" parent="1">
          <mxGeometry x="955.5" y="358.5" width="126" height="29" as="geometry" />
        </mxCell>
        <mxCell id="HhmzMrbmqhr_2IEOml7r-45" value="Todays trending Movie Titles names and reviews" style="rounded=0;whiteSpace=wrap;html=1;" vertex="1" parent="1">
          <mxGeometry x="408.5" y="369.5" width="120" height="356" as="geometry" />
        </mxCell>
        <mxCell id="HhmzMrbmqhr_2IEOml7r-47" value="Ads" style="rounded=0;whiteSpace=wrap;html=1;" vertex="1" parent="1">
          <mxGeometry x="977.5" y="418.5" width="109" height="349" as="geometry" />
        </mxCell>
        <mxCell id="HhmzMrbmqhr_2IEOml7r-48" value="Ads" style="rounded=0;whiteSpace=wrap;html=1;" vertex="1" parent="1">
          <mxGeometry x="547.5" y="713.5" width="400" height="60" as="geometry" />
        </mxCell>
        <mxCell id="HhmzMrbmqhr_2IEOml7r-54" style="edgeStyle=none;curved=1;rounded=0;orthogonalLoop=1;jettySize=auto;html=1;exitX=1;exitY=0.5;exitDx=0;exitDy=0;fontSize=12;startSize=8;endSize=8;" edge="1" parent="1">
          <mxGeometry relative="1" as="geometry">
            <mxPoint x="688.5" y="490" as="sourcePoint" />
            <mxPoint x="688.5" y="490" as="targetPoint" />
          </mxGeometry>
        </mxCell>
        <mxCell id="HhmzMrbmqhr_2IEOml7r-55" style="edgeStyle=none;curved=1;rounded=0;orthogonalLoop=1;jettySize=auto;html=1;exitX=0;exitY=0.5;exitDx=0;exitDy=0;fontSize=12;startSize=8;endSize=8;" edge="1" parent="1">
          <mxGeometry relative="1" as="geometry">
            <mxPoint x="700.5" y="490" as="sourcePoint" />
            <mxPoint x="700.5" y="490" as="targetPoint" />
          </mxGeometry>
        </mxCell>
        <mxCell id="HhmzMrbmqhr_2IEOml7r-31" value="&lt;font style=&quot;font-size: 14px;&quot;&gt;&lt;b&gt;Get&#39;s started&lt;/b&gt;&lt;/font&gt;" style="text;html=1;align=center;verticalAlign=middle;whiteSpace=wrap;rounded=0;" vertex="1" parent="1">
          <mxGeometry x="683" y="487" width="150" height="30" as="geometry" />
        </mxCell>
        <mxCell id="HhmzMrbmqhr_2IEOml7r-33" value="Name" style="rounded=1;whiteSpace=wrap;html=1;" vertex="1" parent="1">
          <mxGeometry x="623" y="528.5" width="270" height="20" as="geometry" />
        </mxCell>
        <mxCell id="HhmzMrbmqhr_2IEOml7r-37" value="email" style="rounded=1;whiteSpace=wrap;html=1;" vertex="1" parent="1">
          <mxGeometry x="623" y="568.5" width="270" height="20" as="geometry" />
        </mxCell>
        <mxCell id="HhmzMrbmqhr_2IEOml7r-38" value="password" style="rounded=1;whiteSpace=wrap;html=1;" vertex="1" parent="1">
          <mxGeometry x="623" y="608.5" width="270" height="20" as="geometry" />
        </mxCell>
        <mxCell id="HhmzMrbmqhr_2IEOml7r-56" value="Authorization" style="text;html=1;align=center;verticalAlign=middle;resizable=0;points=[];autosize=1;strokeColor=none;fillColor=none;fontSize=16;" vertex="1" parent="1">
          <mxGeometry x="260" y="349" width="120" height="30" as="geometry" />
        </mxCell>
        <mxCell id="EHZNfRUuGHDVTqbYh5Uz-1" value="" style="rounded=0;whiteSpace=wrap;html=1;" vertex="1" parent="1">
          <mxGeometry x="396.5" y="804.5" width="702" height="433" as="geometry" />
        </mxCell>
        <mxCell id="EHZNfRUuGHDVTqbYh5Uz-2" value="FilmSpot" style="rounded=0;whiteSpace=wrap;html=1;" vertex="1" parent="1">
          <mxGeometry x="671" y="815.5" width="167" height="46" as="geometry" />
        </mxCell>
        <mxCell id="EHZNfRUuGHDVTqbYh5Uz-3" value="Login / Register" style="rounded=0;whiteSpace=wrap;html=1;" vertex="1" parent="1">
          <mxGeometry x="952" y="813.5" width="126" height="29" as="geometry" />
        </mxCell>
        <mxCell id="EHZNfRUuGHDVTqbYh5Uz-4" value="Todays trending Movie Titles names and reviews" style="rounded=0;whiteSpace=wrap;html=1;" vertex="1" parent="1">
          <mxGeometry x="405" y="824.5" width="120" height="356" as="geometry" />
        </mxCell>
        <mxCell id="EHZNfRUuGHDVTqbYh5Uz-5" value="Ads" style="rounded=0;whiteSpace=wrap;html=1;" vertex="1" parent="1">
          <mxGeometry x="974" y="873.5" width="109" height="349" as="geometry" />
        </mxCell>
        <mxCell id="EHZNfRUuGHDVTqbYh5Uz-6" value="Ads" style="rounded=0;whiteSpace=wrap;html=1;" vertex="1" parent="1">
          <mxGeometry x="544" y="1168.5" width="400" height="60" as="geometry" />
        </mxCell>
        <mxCell id="EHZNfRUuGHDVTqbYh5Uz-7" style="edgeStyle=none;curved=1;rounded=0;orthogonalLoop=1;jettySize=auto;html=1;exitX=1;exitY=0.5;exitDx=0;exitDy=0;fontSize=12;startSize=8;endSize=8;" edge="1" parent="1">
          <mxGeometry relative="1" as="geometry">
            <mxPoint x="685" y="945" as="sourcePoint" />
            <mxPoint x="685" y="945" as="targetPoint" />
          </mxGeometry>
        </mxCell>
        <mxCell id="EHZNfRUuGHDVTqbYh5Uz-8" style="edgeStyle=none;curved=1;rounded=0;orthogonalLoop=1;jettySize=auto;html=1;exitX=0;exitY=0.5;exitDx=0;exitDy=0;fontSize=12;startSize=8;endSize=8;" edge="1" parent="1">
          <mxGeometry relative="1" as="geometry">
            <mxPoint x="697" y="945" as="sourcePoint" />
            <mxPoint x="697" y="945" as="targetPoint" />
          </mxGeometry>
        </mxCell>
        <mxCell id="EHZNfRUuGHDVTqbYh5Uz-13" value="Home page" style="text;html=1;align=center;verticalAlign=middle;resizable=0;points=[];autosize=1;strokeColor=none;fillColor=none;fontSize=16;" vertex="1" parent="1">
          <mxGeometry x="265" y="822" width="110" height="30" as="geometry" />
        </mxCell>
        <mxCell id="EHZNfRUuGHDVTqbYh5Uz-14" value="START" style="rounded=1;whiteSpace=wrap;html=1;" vertex="1" parent="1">
          <mxGeometry x="691" y="960" width="120" height="30" as="geometry" />
        </mxCell>
      </root>
    </mxGraphModel>
  </diagram>
  <diagram id="mibsp6SrYg9GVpOMzh2_" name="Leht-2">
    <mxGraphModel dx="3320" dy="1856" grid="0" gridSize="10" guides="1" tooltips="1" connect="1" arrows="1" fold="1" page="0" pageScale="1" pageWidth="827" pageHeight="1169" math="0" shadow="0">
      <root>
        <mxCell id="0" />
        <mxCell id="1" parent="0" />
        <mxCell id="d5mL1SETGmg1-nzRWt5b-1" value="" style="rounded=0;whiteSpace=wrap;html=1;" vertex="1" parent="1">
          <mxGeometry x="-498" y="-104" width="702" height="433" as="geometry" />
        </mxCell>
        <mxCell id="d5mL1SETGmg1-nzRWt5b-2" value="FilmSpot" style="rounded=0;whiteSpace=wrap;html=1;" vertex="1" parent="1">
          <mxGeometry x="-225" y="-91" width="167" height="46" as="geometry" />
        </mxCell>
        <mxCell id="d5mL1SETGmg1-nzRWt5b-3" value="Login / Register" style="rounded=0;whiteSpace=wrap;html=1;" vertex="1" parent="1">
          <mxGeometry x="56" y="-93" width="126" height="29" as="geometry" />
        </mxCell>
        <mxCell id="d5mL1SETGmg1-nzRWt5b-4" value="Todays trending Movie Titles names and reviews" style="rounded=0;whiteSpace=wrap;html=1;" vertex="1" parent="1">
          <mxGeometry x="-491" y="-82" width="120" height="356" as="geometry" />
        </mxCell>
        <mxCell id="d5mL1SETGmg1-nzRWt5b-5" value="questions" style="rounded=0;whiteSpace=wrap;html=1;" vertex="1" parent="1">
          <mxGeometry x="-340" y="-13" width="383" height="235" as="geometry" />
        </mxCell>
        <mxCell id="d5mL1SETGmg1-nzRWt5b-6" value="Ads" style="rounded=0;whiteSpace=wrap;html=1;" vertex="1" parent="1">
          <mxGeometry x="78" y="-33" width="109" height="349" as="geometry" />
        </mxCell>
        <mxCell id="d5mL1SETGmg1-nzRWt5b-7" value="Ads" style="rounded=0;whiteSpace=wrap;html=1;" vertex="1" parent="1">
          <mxGeometry x="-352" y="262" width="400" height="60" as="geometry" />
        </mxCell>
        <mxCell id="d5mL1SETGmg1-nzRWt5b-8" value="" style="rounded=0;whiteSpace=wrap;html=1;" vertex="1" parent="1">
          <mxGeometry x="-498" y="348" width="702" height="433" as="geometry" />
        </mxCell>
        <mxCell id="d5mL1SETGmg1-nzRWt5b-9" value="FilmSpot" style="rounded=0;whiteSpace=wrap;html=1;" vertex="1" parent="1">
          <mxGeometry x="-225" y="361" width="167" height="46" as="geometry" />
        </mxCell>
        <mxCell id="d5mL1SETGmg1-nzRWt5b-10" value="Login / Register" style="rounded=0;whiteSpace=wrap;html=1;" vertex="1" parent="1">
          <mxGeometry x="56" y="359" width="126" height="29" as="geometry" />
        </mxCell>
        <mxCell id="d5mL1SETGmg1-nzRWt5b-11" value="Todays trending Movie Titles names and reviews" style="rounded=0;whiteSpace=wrap;html=1;" vertex="1" parent="1">
          <mxGeometry x="-491" y="370" width="120" height="356" as="geometry" />
        </mxCell>
        <mxCell id="d5mL1SETGmg1-nzRWt5b-12" value="Ads" style="rounded=0;whiteSpace=wrap;html=1;" vertex="1" parent="1">
          <mxGeometry x="59" y="428" width="120" height="282" as="geometry" />
        </mxCell>
        <mxCell id="d5mL1SETGmg1-nzRWt5b-13" value="Ads" style="rounded=0;whiteSpace=wrap;html=1;" vertex="1" parent="1">
          <mxGeometry x="-352" y="737" width="400" height="37" as="geometry" />
        </mxCell>
        <mxCell id="d5mL1SETGmg1-nzRWt5b-14" value="Your&amp;nbsp;recommended film to watch" style="rounded=1;whiteSpace=wrap;html=1;" vertex="1" parent="1">
          <mxGeometry x="-352" y="426" width="120" height="122" as="geometry" />
        </mxCell>
        <mxCell id="d5mL1SETGmg1-nzRWt5b-15" value="Your&amp;nbsp;recommended film to watch" style="rounded=1;whiteSpace=wrap;html=1;" vertex="1" parent="1">
          <mxGeometry x="-219" y="426" width="120" height="122" as="geometry" />
        </mxCell>
        <mxCell id="d5mL1SETGmg1-nzRWt5b-16" value="Your&amp;nbsp;recommended film to watch" style="rounded=1;whiteSpace=wrap;html=1;" vertex="1" parent="1">
          <mxGeometry x="-86" y="426" width="120" height="122" as="geometry" />
        </mxCell>
        <mxCell id="d5mL1SETGmg1-nzRWt5b-17" value="Your&amp;nbsp;recommended film to watch" style="rounded=1;whiteSpace=wrap;html=1;" vertex="1" parent="1">
          <mxGeometry x="-352" y="562" width="120" height="122" as="geometry" />
        </mxCell>
        <mxCell id="d5mL1SETGmg1-nzRWt5b-18" value="Your&amp;nbsp;recommended film to watch" style="rounded=1;whiteSpace=wrap;html=1;" vertex="1" parent="1">
          <mxGeometry x="-219" y="562" width="120" height="122" as="geometry" />
        </mxCell>
        <mxCell id="d5mL1SETGmg1-nzRWt5b-19" value="Your&amp;nbsp;recommended film to watch" style="rounded=1;whiteSpace=wrap;html=1;" vertex="1" parent="1">
          <mxGeometry x="-86" y="562" width="120" height="122" as="geometry" />
        </mxCell>
        <mxCell id="d5mL1SETGmg1-nzRWt5b-20" style="edgeStyle=none;curved=1;rounded=0;orthogonalLoop=1;jettySize=auto;html=1;exitX=0.5;exitY=0;exitDx=0;exitDy=0;fontSize=12;startSize=8;endSize=8;" edge="1" parent="1" source="d5mL1SETGmg1-nzRWt5b-13" target="d5mL1SETGmg1-nzRWt5b-13">
          <mxGeometry relative="1" as="geometry" />
        </mxCell>
        <mxCell id="d5mL1SETGmg1-nzRWt5b-21" style="edgeStyle=none;curved=1;rounded=0;orthogonalLoop=1;jettySize=auto;html=1;exitX=0;exitY=0.5;exitDx=0;exitDy=0;fontSize=12;startSize=8;endSize=8;" edge="1" parent="1" source="d5mL1SETGmg1-nzRWt5b-12" target="d5mL1SETGmg1-nzRWt5b-12">
          <mxGeometry relative="1" as="geometry" />
        </mxCell>
        <mxCell id="d5mL1SETGmg1-nzRWt5b-22" style="edgeStyle=none;curved=1;rounded=0;orthogonalLoop=1;jettySize=auto;html=1;exitX=0;exitY=1;exitDx=0;exitDy=0;fontSize=12;startSize=8;endSize=8;" edge="1" parent="1" source="d5mL1SETGmg1-nzRWt5b-12" target="d5mL1SETGmg1-nzRWt5b-12">
          <mxGeometry relative="1" as="geometry" />
        </mxCell>
        <mxCell id="d5mL1SETGmg1-nzRWt5b-23" style="edgeStyle=none;curved=1;rounded=0;orthogonalLoop=1;jettySize=auto;html=1;exitX=0;exitY=0.5;exitDx=0;exitDy=0;fontSize=12;startSize=8;endSize=8;" edge="1" parent="1" source="d5mL1SETGmg1-nzRWt5b-12" target="d5mL1SETGmg1-nzRWt5b-12">
          <mxGeometry relative="1" as="geometry" />
        </mxCell>
        <mxCell id="d5mL1SETGmg1-nzRWt5b-24" value="Question" style="rounded=0;whiteSpace=wrap;html=1;" vertex="1" parent="1">
          <mxGeometry x="-316" y="1" width="341" height="33" as="geometry" />
        </mxCell>
        <mxCell id="d5mL1SETGmg1-nzRWt5b-25" value="Answer1" style="rounded=0;whiteSpace=wrap;html=1;" vertex="1" parent="1">
          <mxGeometry x="-316" y="46" width="342" height="30" as="geometry" />
        </mxCell>
        <mxCell id="d5mL1SETGmg1-nzRWt5b-26" value="Answer2" style="rounded=0;whiteSpace=wrap;html=1;" vertex="1" parent="1">
          <mxGeometry x="-316" y="89.5" width="342" height="30" as="geometry" />
        </mxCell>
        <mxCell id="d5mL1SETGmg1-nzRWt5b-27" value="Answer4" style="rounded=0;whiteSpace=wrap;html=1;" vertex="1" parent="1">
          <mxGeometry x="-316" y="181" width="342" height="30" as="geometry" />
        </mxCell>
        <mxCell id="d5mL1SETGmg1-nzRWt5b-28" value="Answer3" style="rounded=0;whiteSpace=wrap;html=1;" vertex="1" parent="1">
          <mxGeometry x="-316" y="138" width="342" height="30" as="geometry" />
        </mxCell>
        <mxCell id="d5mL1SETGmg1-nzRWt5b-29" value="" style="rounded=0;whiteSpace=wrap;html=1;" vertex="1" parent="1">
          <mxGeometry x="-499.5" y="800" width="702" height="433" as="geometry" />
        </mxCell>
        <mxCell id="d5mL1SETGmg1-nzRWt5b-30" value="FilmSpot" style="rounded=0;whiteSpace=wrap;html=1;" vertex="1" parent="1">
          <mxGeometry x="-226.5" y="813" width="167" height="46" as="geometry" />
        </mxCell>
        <mxCell id="d5mL1SETGmg1-nzRWt5b-31" value="Logout" style="rounded=0;whiteSpace=wrap;html=1;" vertex="1" parent="1">
          <mxGeometry x="54.5" y="811" width="126" height="29" as="geometry" />
        </mxCell>
        <mxCell id="d5mL1SETGmg1-nzRWt5b-32" value="Watched movie history" style="rounded=0;whiteSpace=wrap;html=1;" vertex="1" parent="1">
          <mxGeometry x="-492.5" y="822" width="120" height="356" as="geometry" />
        </mxCell>
        <mxCell id="d5mL1SETGmg1-nzRWt5b-33" value="Movies you should watch next" style="rounded=0;whiteSpace=wrap;html=1;" vertex="1" parent="1">
          <mxGeometry x="57.5" y="880" width="120" height="282" as="geometry" />
        </mxCell>
        <mxCell id="d5mL1SETGmg1-nzRWt5b-34" value="Ads" style="rounded=0;whiteSpace=wrap;html=1;" vertex="1" parent="1">
          <mxGeometry x="-353.5" y="1189" width="400" height="37" as="geometry" />
        </mxCell>
        <mxCell id="d5mL1SETGmg1-nzRWt5b-35" value="Film you watched write review and rate" style="rounded=1;whiteSpace=wrap;html=1;" vertex="1" parent="1">
          <mxGeometry x="-353.5" y="878" width="120" height="122" as="geometry" />
        </mxCell>
        <mxCell id="d5mL1SETGmg1-nzRWt5b-36" value="Film you watched write review and rate" style="rounded=1;whiteSpace=wrap;html=1;" vertex="1" parent="1">
          <mxGeometry x="-220.5" y="878" width="120" height="122" as="geometry" />
        </mxCell>
        <mxCell id="d5mL1SETGmg1-nzRWt5b-37" value="Film you watched write review and rate" style="rounded=1;whiteSpace=wrap;html=1;" vertex="1" parent="1">
          <mxGeometry x="-87.5" y="878" width="120" height="122" as="geometry" />
        </mxCell>
        <mxCell id="d5mL1SETGmg1-nzRWt5b-38" value="Film you watched write review and rate" style="rounded=1;whiteSpace=wrap;html=1;" vertex="1" parent="1">
          <mxGeometry x="-353.5" y="1014" width="120" height="122" as="geometry" />
        </mxCell>
        <mxCell id="d5mL1SETGmg1-nzRWt5b-39" value="Film you watched write review and rate" style="rounded=1;whiteSpace=wrap;html=1;" vertex="1" parent="1">
          <mxGeometry x="-220.5" y="1014" width="120" height="122" as="geometry" />
        </mxCell>
        <mxCell id="d5mL1SETGmg1-nzRWt5b-40" value="Film you watched write review and rate" style="rounded=1;whiteSpace=wrap;html=1;" vertex="1" parent="1">
          <mxGeometry x="-87.5" y="1014" width="120" height="122" as="geometry" />
        </mxCell>
        <mxCell id="d5mL1SETGmg1-nzRWt5b-41" style="edgeStyle=none;curved=1;rounded=0;orthogonalLoop=1;jettySize=auto;html=1;exitX=0.5;exitY=0;exitDx=0;exitDy=0;fontSize=12;startSize=8;endSize=8;" edge="1" parent="1" source="d5mL1SETGmg1-nzRWt5b-34" target="d5mL1SETGmg1-nzRWt5b-34">
          <mxGeometry relative="1" as="geometry" />
        </mxCell>
        <mxCell id="d5mL1SETGmg1-nzRWt5b-42" style="edgeStyle=none;curved=1;rounded=0;orthogonalLoop=1;jettySize=auto;html=1;exitX=0;exitY=0.5;exitDx=0;exitDy=0;fontSize=12;startSize=8;endSize=8;" edge="1" parent="1" source="d5mL1SETGmg1-nzRWt5b-33" target="d5mL1SETGmg1-nzRWt5b-33">
          <mxGeometry relative="1" as="geometry" />
        </mxCell>
        <mxCell id="d5mL1SETGmg1-nzRWt5b-43" style="edgeStyle=none;curved=1;rounded=0;orthogonalLoop=1;jettySize=auto;html=1;exitX=0;exitY=1;exitDx=0;exitDy=0;fontSize=12;startSize=8;endSize=8;" edge="1" parent="1" source="d5mL1SETGmg1-nzRWt5b-33" target="d5mL1SETGmg1-nzRWt5b-33">
          <mxGeometry relative="1" as="geometry" />
        </mxCell>
        <mxCell id="d5mL1SETGmg1-nzRWt5b-44" style="edgeStyle=none;curved=1;rounded=0;orthogonalLoop=1;jettySize=auto;html=1;exitX=0;exitY=0.5;exitDx=0;exitDy=0;fontSize=12;startSize=8;endSize=8;" edge="1" parent="1" source="d5mL1SETGmg1-nzRWt5b-33" target="d5mL1SETGmg1-nzRWt5b-33">
          <mxGeometry relative="1" as="geometry" />
        </mxCell>
        <mxCell id="d5mL1SETGmg1-nzRWt5b-45" style="edgeStyle=none;curved=1;rounded=0;orthogonalLoop=1;jettySize=auto;html=1;exitX=0.5;exitY=0;exitDx=0;exitDy=0;fontSize=12;startSize=8;endSize=8;" edge="1" parent="1" source="d5mL1SETGmg1-nzRWt5b-34" target="d5mL1SETGmg1-nzRWt5b-34">
          <mxGeometry relative="1" as="geometry">
            <Array as="points">
              <mxPoint x="-153" y="1185" />
            </Array>
          </mxGeometry>
        </mxCell>
        <mxCell id="d5mL1SETGmg1-nzRWt5b-46" value="Page selector 1 - infinte" style="rounded=0;whiteSpace=wrap;html=1;" vertex="1" parent="1">
          <mxGeometry x="-257" y="1152" width="203" height="29" as="geometry" />
        </mxCell>
        <mxCell id="d5mL1SETGmg1-nzRWt5b-47" style="edgeStyle=none;curved=1;rounded=0;orthogonalLoop=1;jettySize=auto;html=1;exitX=0.5;exitY=0;exitDx=0;exitDy=0;fontSize=12;startSize=8;endSize=8;" edge="1" parent="1" source="d5mL1SETGmg1-nzRWt5b-13" target="d5mL1SETGmg1-nzRWt5b-13">
          <mxGeometry relative="1" as="geometry" />
        </mxCell>
        <mxCell id="d5mL1SETGmg1-nzRWt5b-48" value="Page number" style="rounded=0;whiteSpace=wrap;html=1;" vertex="1" parent="1">
          <mxGeometry x="-213" y="697" width="105.5" height="27" as="geometry" />
        </mxCell>
      </root>
    </mxGraphModel>
  </diagram>
</mxfile>
